<?xml version="1.0" encoding="utf-8"?>
<!-- Generator: Adobe Illustrator 16.0.4, SVG Export Plug-In . SVG Version: 6.00 Build 0)  -->
<!DOCTYPE svg PUBLIC "-//W3C//DTD SVG 1.1//EN" "http://www.w3.org/Graphics/SVG/1.1/DTD/svg11.dtd">
<svg version="1.1" id="Layer_1" xmlns="http://www.w3.org/2000/svg" xmlns:xlink="http://www.w3.org/1999/xlink" x="0px" y="0px"
	 width="160px" height="160px" viewBox="0 0 160 160" enable-background="new 0 0 160 160" xml:space="preserve">
<path fill="#FFFFFF" d="M67.435,87.861c0,4.538-3.678,8.216-8.215,8.216s-8.215-3.678-8.215-8.216c0-4.537,3.678-8.214,8.215-8.214
	S67.435,83.324,67.435,87.861z M100.781,79.647c-4.538,0-8.216,3.678-8.216,8.215s3.679,8.215,8.216,8.215
	c4.536,0,8.215-3.678,8.215-8.215C108.996,83.324,105.317,79.647,100.781,79.647z M160,83.283v15.611
	c0,7.84-6.354,14.193-14.193,14.193h-10.299C125.303,141.424,99.243,158.539,80,158.539s-45.303-17.115-55.508-45.451H14.193
	C6.354,113.088,0,106.734,0,98.895V83.283c0-5.395,3.009-10.085,7.44-12.486c0.149-22.166,6.609-39.478,19.23-51.446
	C39.188,7.48,57.131,1.461,80,1.461s40.812,6.02,53.33,17.89c12.62,11.968,19.08,29.279,19.229,51.445
	C156.99,73.198,160,77.889,160,83.283z M129.961,87.914c0-3.652-0.188-7.083-0.463-10.408c-6.3-5.763-17.734-10.136-32.166-11.761
	c1.895,2.131,3.531,4.934,4.523,8.623c-8.839-6.964-26.19-5.306-39.315-20.89c-0.752-0.871-1.403-1.702-1.966-2.462
	c-0.006-0.009-0.014-0.016-0.02-0.025l0.001,0c-2.335-3.157-3.131-5.036-3.176-2.957C56.996,65.947,44.3,79.91,30.202,81.881
	c-0.089,1.97-0.162,3.959-0.162,6.033c0,7.571,1.236,14.472,3.338,20.689c7.918,9.553,20.996,12.25,32.571,12.965
	c2.149-3.418,6.97-5.805,12.584-5.805c7.612,0,13.783,4.38,13.783,9.783s-6.171,9.784-13.783,9.784
	c-5.855,0-10.845-2.597-12.842-6.252c-8.09-0.47-16.983-1.849-24.909-5.593C51.93,139.916,69.209,148.604,80,148.604
	C96.957,148.604,129.961,127.183,129.961,87.914z M144.015,69.09C143.111,30.41,121.033,9.977,80,9.977S16.889,30.41,15.985,69.09
	h5.461c1.997-13.037,6.216-23.759,12.624-32.003C44.28,23.95,59.733,17.289,80,17.289c20.268,0,35.721,6.662,45.931,19.798
	c6.407,8.244,10.627,18.966,12.624,32.003H144.015L144.015,69.09z"/>
</svg>
