<?xml version="1.0" encoding="utf-8"?>
<!-- Generator: Adobe Illustrator 16.0.4, SVG Export Plug-In . SVG Version: 6.00 Build 0)  -->
<!DOCTYPE svg PUBLIC "-//W3C//DTD SVG 1.1//EN" "http://www.w3.org/Graphics/SVG/1.1/DTD/svg11.dtd">
<svg version="1.1" id="Layer_1" xmlns="http://www.w3.org/2000/svg" xmlns:xlink="http://www.w3.org/1999/xlink" x="0px" y="0px"
	 width="150px" height="150px" viewBox="0 0 150 150" enable-background="new 0 0 150 150" xml:space="preserve">
<path fill="#2EB6D1" d="M134.986,27.181h-29.061v-0.744c0-8.053-6.549-14.605-14.601-14.605H58.448
	c-8.05,0-14.602,6.552-14.602,14.605v0.744H14.788c-8.051,0-14.602,6.551-14.602,14.603v69.567c0,8.055,6.55,14.605,14.602,14.605
	h120.198c8.053,0,14.604-6.553,14.604-14.605V41.784C149.591,33.731,143.039,27.181,134.986,27.181z M53.206,26.437
	c0-2.892,2.353-5.243,5.242-5.243h32.878c2.89,0,5.24,2.351,5.24,5.243v0.744h-43.36V26.437z M14.788,36.542h120.198
	c2.89,0,5.242,2.353,5.242,5.242v9.847c-0.115,0.326-0.19,0.673-0.19,1.038c0,2.51-0.808,5.674-7.101,7.927l-36.024,9.12
	c-0.513-4.78-4.892-8.527-10.206-8.527H63.069c-5.337,0-9.73,3.78-10.211,8.591l-36.28-9.184c-5.379-1.929-6.748-4.522-7.03-6.802
	v-12.01C9.547,38.894,11.9,36.542,14.788,36.542z M90.727,70.658v6.109c0,1.75-1.843,3.226-4.02,3.226H63.069
	c-2.18,0-4.02-1.476-4.02-3.226v-6.109c0-1.75,1.84-3.229,4.02-3.229h23.638C88.884,67.43,90.727,68.908,90.727,70.658z
	 M134.986,116.596H14.788c-2.888,0-5.241-2.353-5.241-5.244v-1.17c1.899,1.104,4.099,1.746,6.452,1.746h87.692
	c1.726,0,3.119-1.396,3.119-3.119c0-1.725-1.395-3.121-3.119-3.121H15.999c-3.167,0-5.815-2.219-6.452-5.16V64.076
	c1.45,0.947,3.144,1.767,5.088,2.452c0.089,0.031,0.178,0.058,0.271,0.082l37.902,9.596v0.562c0,5.222,4.6,9.467,10.259,9.467
	h23.638c5.658,0,10.259-4.245,10.259-9.467v-0.625l37.646-9.534c0.092-0.024,0.183-0.051,0.27-0.082
	c2.064-0.727,3.844-1.608,5.35-2.631v36.629c-0.636,2.941-3.283,5.16-6.449,5.16h-15.098c-1.724,0-3.121,1.396-3.121,3.121
	c0,1.723,1.397,3.119,3.121,3.119h15.098c2.35,0,4.552-0.643,6.449-1.746v1.17C140.229,114.243,137.876,116.596,134.986,116.596z"/>
</svg>
