<?xml version="1.0" encoding="utf-8"?>
<!-- Generator: Adobe Illustrator 16.0.4, SVG Export Plug-In . SVG Version: 6.00 Build 0)  -->
<!DOCTYPE svg PUBLIC "-//W3C//DTD SVG 1.1//EN" "http://www.w3.org/Graphics/SVG/1.1/DTD/svg11.dtd">
<svg version="1.1" id="Layer_1" xmlns="http://www.w3.org/2000/svg" xmlns:xlink="http://www.w3.org/1999/xlink" x="0px" y="0px"
	 width="150px" height="150px" viewBox="0 0 150 150" enable-background="new 0 0 150 150" xml:space="preserve">
<g>
	<path fill="#FFFFFF" d="M128.695,50.129l19.85-32.444c0.943-1.45,1.492-3.179,1.492-5.039c0-5.106-4.137-9.245-9.242-9.245h-0.007
		H87.15c-5.107,0-9.247,4.138-9.247,9.245v6.133H48.404c-5.106,0-9.245,4.138-9.245,9.245v74.263c0,5.107,4.138,9.249,9.245,9.249
		h53.639c5.104,0,9.244-4.142,9.244-9.249v-6.133h29.501c3.359,0,6.457-1.824,8.085-4.764c1.63-2.941,1.536-6.529-0.247-9.38
		L128.695,50.129z M48.404,28.024h32.572v4.526c0,1.702,1.377,3.08,3.08,3.08c1.701,0,3.082-1.377,3.082-3.08v-4.526h0.012V12.646
		h53.638l-22.965,37.536l22.965,36.727h-38.745v0.023H87.139V46.54c0-1.702-1.381-3.08-3.082-3.08c-1.703,0-3.08,1.378-3.08,3.08
		v43.454c0,0,0,0,0,0.005v0.018c0,0.05,0.014,0.1,0.014,0.153c0.009,0.144,0.017,0.293,0.044,0.437
		c0.018,0.1,0.054,0.189,0.081,0.283c0.029,0.1,0.052,0.194,0.091,0.289c0.038,0.095,0.09,0.181,0.137,0.27
		c0.047,0.086,0.088,0.181,0.143,0.262c0.059,0.09,0.131,0.167,0.195,0.248c0.061,0.071,0.112,0.147,0.181,0.216
		c0.114,0.117,0.243,0.22,0.377,0.319c0.029,0.019,0.05,0.046,0.079,0.063l0.009,0.009c0.005,0,0.01,0.005,0.014,0.01l14.198,9.712
		H48.404V28.024z M102.043,98.586l-8.026-5.489h8.026V98.586z"/>
	<path fill="#FFFFFF" d="M26.878,19.663c-2.555,0-4.622,2.066-4.622,4.625v120.594c0,2.552,2.067,4.624,4.622,4.624
		c2.553,0,4.623-2.072,4.623-4.624V24.287C31.5,21.729,29.431,19.663,26.878,19.663z"/>
	<circle fill="#FFFFFF" cx="26.878" cy="7.939" r="5.987"/>
</g>
</svg>
