<?xml version="1.0" encoding="utf-8"?>
<!-- Generator: Adobe Illustrator 16.0.4, SVG Export Plug-In . SVG Version: 6.00 Build 0)  -->
<!DOCTYPE svg PUBLIC "-//W3C//DTD SVG 1.1//EN" "http://www.w3.org/Graphics/SVG/1.1/DTD/svg11.dtd">
<svg version="1.1" id="Layer_1" xmlns="http://www.w3.org/2000/svg" xmlns:xlink="http://www.w3.org/1999/xlink" x="0px" y="0px"
	 width="74.067px" height="13.806px" viewBox="0 0 74.067 13.806" enable-background="new 0 0 74.067 13.806" xml:space="preserve">
<linearGradient id="SVGID_1_" gradientUnits="userSpaceOnUse" x1="50.9922" y1="-55.6294" x2="62.3965" y2="-55.6294" gradientTransform="matrix(-1 0 0 -1 62.3965 -46.707)">
	<stop  offset="0" style="stop-color:#68CBDC"/>
	<stop  offset="0.0024" style="stop-color:#68CADC"/>
	<stop  offset="0.6878" style="stop-color:#009FC4"/>
	<stop  offset="1" style="stop-color:#0093BD"/>
</linearGradient>
<polygon fill="url(#SVGID_1_)" points="11.404,5.966 5.702,13.861 0,3.983 "/>
<g>
	<path d="M24.998,4.168h2.913l2.203,6.473h0.026l2.082-6.473h2.915v9.414h-1.938V6.91h-0.026l-2.308,6.672h-1.595l-2.308-6.606
		h-0.026v6.606h-1.938V4.168z"/>
	<path d="M36.687,4.168h2.069v9.414h-2.069V4.168z"/>
	<path d="M40.311,4.168h2.057l3.929,6.315h0.026V4.168h1.938v9.414H46.19L42.274,7.28h-0.026v6.302h-1.938V4.168z"/>
	<path d="M49.812,4.168h2.07v9.414h-2.07V4.168z"/>
	<path d="M53.436,4.168h2.914l2.202,6.473h0.026l2.082-6.473h2.915v9.414h-1.938V6.91H61.61l-2.308,6.672h-1.595L55.4,6.976h-0.026
		v6.606h-1.938V4.168z"/>
	<path d="M69.343,3.944c2.914,0,4.628,2.175,4.628,4.97c0,2.716-1.714,4.892-4.628,4.892c-2.913,0-4.627-2.175-4.627-4.892
		C64.716,6.119,66.43,3.944,69.343,3.944z M69.343,12.065c1.859,0,2.559-1.582,2.559-3.151c0-1.647-0.699-3.229-2.559-3.229
		c-1.858,0-2.558,1.582-2.558,3.229C66.785,10.483,67.484,12.065,69.343,12.065z"/>
</g>
<linearGradient id="SVGID_2_" gradientUnits="userSpaceOnUse" x1="39.4922" y1="-55.6294" x2="50.8984" y2="-55.6294" gradientTransform="matrix(-1 0 0 -1 62.3965 -46.707)">
	<stop  offset="0" style="stop-color:#68CBDC"/>
	<stop  offset="0.0024" style="stop-color:#68CADC"/>
	<stop  offset="0.6878" style="stop-color:#009FC4"/>
	<stop  offset="1" style="stop-color:#0093BD"/>
</linearGradient>
<polygon fill="url(#SVGID_2_)" points="22.904,3.983 17.2,13.861 11.498,5.966 "/>
<linearGradient id="SVGID_3_" gradientUnits="userSpaceOnUse" x1="42.1416" y1="-58.4839" x2="45.3302" y2="-51.4691" gradientTransform="matrix(-1 0 0 -1 62.3965 -46.707)">
	<stop  offset="0" style="stop-color:#68CBDC"/>
	<stop  offset="0.0024" style="stop-color:#68CADC"/>
	<stop  offset="0.6878" style="stop-color:#009FC4"/>
	<stop  offset="1" style="stop-color:#0093BD"/>
</linearGradient>
<polygon fill="url(#SVGID_3_)" points="22.827,3.983 15.228,10.441 11.498,5.966 "/>
<linearGradient id="SVGID_4_" gradientUnits="userSpaceOnUse" x1="-1.1035" y1="8.7017" x2="5.5969" y2="6.6979">
	<stop  offset="0" style="stop-color:#68CBDC"/>
	<stop  offset="0.0024" style="stop-color:#68CADC"/>
	<stop  offset="0.6878" style="stop-color:#009FC4"/>
	<stop  offset="1" style="stop-color:#0093BD"/>
</linearGradient>
<polygon fill="url(#SVGID_4_)" points="0.077,3.983 7.678,10.441 11.404,5.966 "/>
<linearGradient id="SVGID_5_" gradientUnits="userSpaceOnUse" x1="5.6279" y1="6.8379" x2="15.3408" y2="6.8379">
	<stop  offset="0" style="stop-color:#68CBDC"/>
	<stop  offset="0.0024" style="stop-color:#68CADC"/>
	<stop  offset="0.6878" style="stop-color:#009FC4"/>
	<stop  offset="1" style="stop-color:#0093BD"/>
</linearGradient>
<polygon fill="url(#SVGID_5_)" points="15.341,6.702 8.529,-0.18 5.628,13.856 14.699,11.618 "/>
<linearGradient id="SVGID_6_" gradientUnits="userSpaceOnUse" x1="17.0859" y1="13.6455" x2="9.1551" y2="6.0781">
	<stop  offset="0" style="stop-color:#68CBDC"/>
	<stop  offset="0.0024" style="stop-color:#68CADC"/>
	<stop  offset="0.6878" style="stop-color:#009FC4"/>
	<stop  offset="1" style="stop-color:#0093BD"/>
</linearGradient>
<polygon fill="url(#SVGID_6_)" points="17.177,13.856 14.275,-0.18 5.628,13.856 "/>
</svg>
