<?xml version="1.0" encoding="utf-8"?>
<!-- Generator: Adobe Illustrator 16.0.4, SVG Export Plug-In . SVG Version: 6.00 Build 0)  -->
<!DOCTYPE svg PUBLIC "-//W3C//DTD SVG 1.1//EN" "http://www.w3.org/Graphics/SVG/1.1/DTD/svg11.dtd">
<svg version="1.1" id="Layer_1" xmlns="http://www.w3.org/2000/svg" xmlns:xlink="http://www.w3.org/1999/xlink" x="0px" y="0px"
	 width="150px" height="150px" viewBox="0 0 150 150" enable-background="new 0 0 150 150" xml:space="preserve">
<g>
	<path fill="#2EB6D1" d="M109.941,0.256H34.039c-5.145,0-9.312,4.17-9.312,9.315v130.154c0,5.143,4.167,9.316,9.312,9.316h75.902
		c5.144,0,9.313-4.175,9.313-9.316V9.571C119.256,4.427,115.085,0.256,109.941,0.256z M109.941,139.725H34.039V9.571h75.902V139.725
		z"/>
	<path fill="#2EB6D1" d="M71.989,119.741c-3.694,0-6.693,2.995-6.693,6.696c0,3.697,3,6.688,6.693,6.688
		c3.699,0,6.697-2.991,6.697-6.688C78.688,122.736,75.688,119.741,71.989,119.741z"/>
	<path fill="#2EB6D1" d="M44.41,97.747c1.716,0,3.105-1.39,3.105-3.104V35.184h48.952v10.13c0,1.716,1.389,3.105,3.104,3.105
		s3.104-1.389,3.104-3.105V32.079c0-1.716-1.39-3.105-3.104-3.105H44.41c-1.714,0-3.104,1.389-3.104,3.105v62.563
		C41.307,96.357,42.696,97.747,44.41,97.747z"/>
	<path fill="#2EB6D1" d="M44.41,111.741h55.162c1.714,0,3.104-1.39,3.104-3.106V60.283c0-1.714-1.39-3.104-3.104-3.104
		c-1.717,0-3.104,1.39-3.104,3.104v45.251H44.41c-1.714,0-3.104,1.39-3.104,3.101C41.307,110.352,42.696,111.741,44.41,111.741z"/>
	<path fill="#2EB6D1" d="M62.613,22.387h18.755c1.713,0,3.103-1.392,3.103-3.106c0-1.714-1.39-3.104-3.103-3.104H62.613
		c-1.713,0-3.104,1.39-3.104,3.104C59.509,20.996,60.899,22.387,62.613,22.387z"/>
</g>
</svg>
