<?xml version="1.0" encoding="utf-8"?>
<!-- Generator: Adobe Illustrator 16.0.4, SVG Export Plug-In . SVG Version: 6.00 Build 0)  -->
<!DOCTYPE svg PUBLIC "-//W3C//DTD SVG 1.1//EN" "http://www.w3.org/Graphics/SVG/1.1/DTD/svg11.dtd">
<svg version="1.1" id="Layer_1" xmlns="http://www.w3.org/2000/svg" xmlns:xlink="http://www.w3.org/1999/xlink" x="0px" y="0px"
	 width="150px" height="150px" viewBox="0 0 150 150" enable-background="new 0 0 150 150" xml:space="preserve">
<g>
	<path fill="#2EB6D1" d="M76.234,72.381c19.807,0,35.922-16.112,35.922-35.919c0-19.81-16.115-35.924-35.922-35.924
		c-19.808,0-35.922,16.115-35.922,35.924C40.312,56.269,56.427,72.381,76.234,72.381z M76.234,9.917
		c14.635,0,26.543,11.907,26.543,26.544c0,14.634-11.908,26.542-26.543,26.542c-14.635,0-26.544-11.907-26.544-26.542
		C49.69,21.824,61.6,9.917,76.234,9.917z"/>
	<path fill="#2EB6D1" d="M138.118,109.568c-8.981-15.525-23.345-27.039-40.435-32.411c-2.213-0.697-4.611,0.333-5.627,2.422
		c-3.588,7.397-9.027,13.614-15.822,18.116c-6.796-4.502-12.235-10.719-15.823-18.116c-1.015-2.089-3.41-3.119-5.626-2.422
		c-17.091,5.372-31.452,16.886-40.435,32.411c-0.844,1.455-0.844,3.248,0,4.699C27.101,136.309,50.815,150,76.234,150
		c25.42,0,49.134-13.691,61.884-35.732C138.963,112.816,138.963,111.023,138.118,109.568z M98.525,87.379
		c2.588,0.99,5.088,2.162,7.5,3.48c-3.805,6.591-9.187,14.423-16.006,20.476c-0.771-0.671-1.565-1.387-2.386-2.126
		c-1.678-1.514-3.392-3.047-5.172-4.438C89.023,100.205,94.495,94.303,98.525,87.379z M70.006,104.771
		c-1.781,1.391-3.494,2.924-5.172,4.438c-0.819,0.739-1.615,1.455-2.385,2.126c-6.819-6.053-12.201-13.885-16.005-20.476
		c2.413-1.318,4.913-2.49,7.501-3.48C57.974,94.303,63.445,100.205,70.006,104.771z M79.361,140.518v-20.676
		c0-1.725-1.4-3.125-3.127-3.125c-1.728,0-3.127,1.4-3.127,3.125v20.676C53.132,139.5,34.7,128.812,23.895,111.919
		c4.527-7.089,10.393-13.118,17.216-17.794c4.447,7.682,10.944,16.954,19.355,23.723c1.131,0.908,2.737,0.922,3.879,0.032
		c1.548-1.204,3.067-2.577,4.675-4.026c2.365-2.131,4.798-4.324,7.212-5.849c2.416,1.522,4.85,3.718,7.215,5.849
		c1.607,1.449,3.126,2.822,4.675,4.026c0.563,0.438,1.241,0.657,1.92,0.657c0.692,0,1.388-0.229,1.96-0.689
		c8.41-6.769,14.908-16.041,19.355-23.723c6.822,4.676,12.688,10.705,17.216,17.794C117.77,128.812,99.337,139.5,79.361,140.518z"/>
</g>
</svg>
