<?xml version="1.0" encoding="utf-8"?>
<!-- Generator: Adobe Illustrator 16.0.4, SVG Export Plug-In . SVG Version: 6.00 Build 0)  -->
<!DOCTYPE svg PUBLIC "-//W3C//DTD SVG 1.1//EN" "http://www.w3.org/Graphics/SVG/1.1/DTD/svg11.dtd">
<svg version="1.1" id="Layer_1" xmlns="http://www.w3.org/2000/svg" xmlns:xlink="http://www.w3.org/1999/xlink" x="0px" y="0px"
	 width="150px" height="150px" viewBox="0 0 150 150" enable-background="new 0 0 150 150" xml:space="preserve">
<g>
	<path fill="#2EB6D1" d="M139.975,25.949H10.292C5.161,25.949,1,30.106,1,35.237v89.57c0,5.133,4.161,9.289,9.292,9.289h129.683
		c5.131,0,9.291-4.156,9.291-9.289v-89.57C149.266,30.106,145.105,25.949,139.975,25.949z M10.292,35.237h129.683v15.411H10.292
		V35.237z M139.975,124.809H10.292V59.938h129.683V124.809z"/>
	<path fill="#2EB6D1" d="M24.25,78.869h85.382c1.71,0,3.095-1.391,3.095-3.1c0-1.711-1.385-3.096-3.095-3.096H24.25
		c-1.71,0-3.097,1.384-3.097,3.096C21.153,77.479,22.54,78.869,24.25,78.869z"/>
	<path fill="#2EB6D1" d="M126.473,81.588c3.213,0,5.818-2.602,5.818-5.818c0-3.212-2.605-5.813-5.818-5.813
		s-5.813,2.602-5.813,5.813C120.658,78.986,123.26,81.588,126.473,81.588z"/>
	<path fill="#2EB6D1" d="M23.793,114.812c1.71,0,3.095-1.385,3.095-3.096v-12.23h82.744c1.71,0,3.095-1.383,3.095-3.094
		s-1.385-3.1-3.095-3.1H23.793c-1.71,0-3.097,1.389-3.097,3.1v15.324C20.696,113.43,22.083,114.812,23.793,114.812z"/>
	<path fill="#2EB6D1" d="M126.473,93.294c-1.711,0-3.095,1.39-3.095,3.099v12.228H39.652c-1.71,0-3.097,1.389-3.097,3.099
		c0,1.711,1.387,3.096,3.097,3.096h86.819c1.711,0,3.1-1.385,3.1-3.096V96.393C129.57,94.684,128.184,93.294,126.473,93.294z"/>
</g>
</svg>
